<svg xmlns="http://www.w3.org/2000/svg" version="1.1" xmlns:xlink="http://www.w3.org/1999/xlink" xmlns:svgjs="http://svgjs.dev/svgjs" width="1000" height="1125" viewBox="0 0 1000 1125"><g transform="matrix(1,0,0,1,1.7053025658242404e-13,0)"><svg viewBox="0 0 320 360" data-background-color="#ffffff" preserveAspectRatio="xMidYMid meet" height="1125" width="1000" xmlns="http://www.w3.org/2000/svg" xmlns:xlink="http://www.w3.org/1999/xlink"><g id="tight-bounds" transform="matrix(1,0,0,1,0,0)"><svg viewBox="0 0 320 360" height="360" width="320"><g><svg></svg></g><g><svg viewBox="0 0 320 360" height="360" width="320"><g><path xmlns="http://www.w3.org/2000/svg" d="M20.961 227.22l3.726 4.658-1.863-6.056c-0.466-2.795-3.726 0.466-1.863 1.398M25.153 224.425c1.397 2.329 2.795 4.658 2.795 6.987 0 3.261 2.795 4.658 5.123 5.589-3.261-3.726-5.124-13.974-7.918-12.576M204.017 26.929c7.918 0 15.371-0.932 23.756 0.931 20.495 5.124 37.729 15.371 49.374 29.811l32.606 52.169c1.397 13.042 4.192 27.482 3.726 43.319 3.261 0 2.795-4.658 6.521-5.59-3.726 9.316-5.59 20.961-6.521 34.469-2.329-7.453 0-18.632 0.466-24.687-3.261 5.124-5.124 1.397-5.124-0.932 0.466-3.726-1.397-3.261-2.795-4.658-5.124-4.658-8.384-9.782-12.11-17.7 2.329-6.055 2.795-14.905-4.658-19.563-2.329-1.397-5.124-3.726-6.521-7.453-1.863-5.124-5.124-11.179-4.193-19.097 0.466-2.329-6.987 5.124-11.179 1.863-18.166-12.576-36.332-27.016-58.224-39.127-11.645 0-20.029-4.192-24.221-9.316-3.726-4.658-0.932-10.713 4.658-11.179 3.261 0 6.987-0.932 9.782 0.932 0.466-1.863 2.329-4.192 4.657-4.192M157.904 16.215l0.932 0.466c4.658 0.932 6.987 7.453 12.11 5.124 0 3.261 0.466 6.521-0.466 8.85-1.397 3.726-5.59 3.726-8.85 3.726-31.208-1.863-49.374 11.179-68.471 22.358-5.124 3.261-10.713 5.59-14.906 9.782-20.029 18.632-41.921 35.866-47.045 70.335l-4.192 38.195c-0.466 4.192-5.124 8.384-4.192 13.508l3.26 22.824c-3.261-3.261-5.124 0.932-4.192 2.795 0.466 1.397 2.329 6.055 5.124 1.863 3.726 6.987 7.453 20.495 12.576 26.55 15.837 18.632 36.332 35.4 53.101 52.169 4.192-0.932 7.453-0.932 8.384-3.727 1.397 2.795-1.397 5.59-3.726 6.056 7.453 4.658 15.837 8.85 27.016 9.781 14.44 0.932 27.948 3.261 40.524 6.522 6.521-1.863 13.042-2.795 20.029-3.261 2.329 0 3.726-3.726 6.521-4.658l0.466-4.658c2.795 4.192 2.329-1.397 0.466-4.192 3.261 2.795 4.192 5.124 5.589 6.987 0-1.397 3.726-6.521 3.727-0.466l0.931-6.055c1.397-0.932 1.863 5.124 3.261 0.931 1.397-4.192 4.192-0.932 6.987-2.329-0.932 1.863-0.466 5.59 2.794 3.261l3.727-3.261c2.329 5.59 6.055 3.261 7.918 2.329 20.495-13.042 40.99-28.413 60.553-43.784l-0.466 6.055 2.329-7.453c2.329 2.329 4.192 0.466 5.124-0.931 2.795-4.658 6.521-9.316 12.577-13.508-7.453 20.029-16.303 35.866-27.482 48.908l-4.658 5.59c0 3.261-0.932 7.453-4.658 7.918-1.863 0.466-5.59-0.932-8.384 1.863-1.397 1.863 3.261 5.59-0.466 2.795-3.261-2.329-6.521 0-10.248 0.932-2.795 0.932 1.863 3.726 2.795 5.589 0.932 1.863 1.863 3.726 1.398 6.056l-5.124-5.59c-6.055 3.261-9.782 9.316-14.906 13.974-2.329 1.863-1.397 5.124-1.397 7.918-3.261 0-6.987-0.932-8.85 0.932-1.397 1.863-0.932 4.658-0.932 7.453-4.658-0.466-5.124-7.453-9.315-6.056-4.192 0.932-8.85 1.397-12.577 3.727 2.795 5.59-4.658 2.329-3.726 3.26-6.987-4.192-13.042-7.453-20.495-4.658-15.837-5.124-35.4-2.795-49.84-0.931 0-2.329 0.466-4.658-0.466-5.124-0.932 2.329-3.726 1.397-3.26 1.397-8.85-6.055-17.7-9.782-27.016-14.905-8.384 0.932-16.303-3.261-18.632-5.59-6.521-6.055-13.974-2.795-20.029-4.192-13.042-3.261-17.7-16.769-19.098-26.084-0.932-4.658-4.658-6.521-6.055-6.056-6.055-19.563-15.371-37.263-22.824-55.429-1.863-4.658-1.397-9.316-1.397-14.44 2.329 0.932 4.658 0.466 4.192-2.794-2.329-15.371-7.918-27.016-13.974-38.195 3.261-15.837 3.726-34.469 11.179-48.443 6.521-12.576 18.632-19.098 27.016-29.811 2.795-3.726 2.795-8.85 5.59-12.11 9.316-9.316 18.632-19.098 28.879-27.482 4.658-3.726 10.247 0 17.234-1.397 2.329-8.384 11.645-15.837 20.495-13.508 3.726 0.932 11.179-8.85 13.508-9.782 3.726-1.397 1.863 3.726 1.863 6.987 8.85-6.987 20.961-10.713 32.14-14.906" fill="#ffffff" fill-rule="nonzero" stroke="none" stroke-width="1" stroke-linecap="butt" stroke-linejoin="miter" stroke-miterlimit="10" stroke-dasharray="" stroke-dashoffset="0" font-family="none" font-weight="none" font-size="none" text-anchor="none" style="mix-blend-mode: normal" data-fill-palette-color="tertiary"></path></g><g transform="matrix(1,0,0,1,64,139.28056170049052)"><svg viewBox="0 0 192 81.43887659901895" height="81.43887659901895" width="192"><g><svg viewBox="0 0 192 81.43887659901895" height="81.43887659901895" width="192"><g><svg viewBox="0 0 192 81.43887659901895" height="81.43887659901895" width="192"><g><svg viewBox="0 0 192 81.43887659901895" height="81.43887659901895" width="192"><g><svg viewBox="0 0 192 81.43887659901895" height="81.43887659901895" width="192"><g><svg viewBox="0 0 192 81.43887659901895" height="81.43887659901895" width="192"><g transform="matrix(1,0,0,1,0,0)"><svg width="192" viewBox="-2.0999999046325684 -43.599998474121094 105.61083221435547 44.099998474121094" height="81.43887659901895" data-palette-color="#374151"><g class="undefined-text-0" data-fill-palette-color="primary" id="text-0"><path d="M21.2 0.5Q18.85 0.5 18.3-2.9L18.3-2.9Q17.85-5.65 17.85-12.75L17.85-12.75 16.6-11.8 10.5-11.8Q9.35-8.85 7.83-6.5 6.3-4.15 4.6-3L4.6-3 4.6-2.9Q5.25-2.6 5.85-2.6L5.85-2.6Q6.6-2.6 7.28-2.85 7.95-3.1 8.1-3.1L8.1-3.1Q8.45-3.1 8.45-2.85L8.45-2.85Q8.45-2.5 7.75-1.65L7.75-1.65Q6.95-0.85 6.05-0.43 5.15 0 4.35 0L4.35 0Q3.7 0 2.5-0.4L2.5-0.4Q1.3-0.8 0.7-0.8L0.7-0.8Q-0.05-0.8-0.83-0.4-1.6 0-1.85 0L-1.85 0Q-2.1 0-2.1-0.25L-2.1-0.25Q-2.1-0.75-1.7-1.43-1.3-2.1-0.75-2.35L-0.75-2.35Q-0.45-2.5-0.18-2.55 0.1-2.6 0.5-2.75L0.5-2.75Q2.45-3.5 3.93-5.48 5.4-7.45 6.45-9.93 7.5-12.4 8.85-16.25L8.85-16.25Q10.4-20.6 11.53-23.33 12.65-26.05 14.2-28.38 15.75-30.7 17.75-32L17.75-32 17.75-32.05Q17.05-32.15 16.7-32.25L16.7-32.25Q16.5-32.3 15.48-32.45 14.45-32.6 12.85-32.6L12.85-32.6Q10.15-32.6 8.33-31.6 6.5-30.6 4.9-28.35L4.9-28.35Q4.4-27.55 4.1-27.55L4.1-27.55Q3.8-27.55 3.8-27.95L3.8-27.95 3.85-28.45Q4.6-31.5 7.28-33.35 9.95-35.2 13.5-35.2L13.5-35.2Q14.95-35.2 17.85-34.7L17.85-34.7Q20.55-34.2 21.7-34.2L21.7-34.2Q23-34.2 24.45-34.7L24.45-34.7 24.45-34.65Q23.1-32.4 22.35-27.63 21.6-22.85 21.6-15.8L21.6-15.8Q21.6-8.55 21.9-6L21.9-6Q22-4.55 22.33-3.83 22.65-3.1 23.45-3.1L23.45-3.1Q23.95-3.1 24.43-3.35 24.9-3.6 25.7-4.1L25.7-4.1Q26.65-4.75 26.9-4.75L26.9-4.75Q27.2-4.75 27.2-4.55L27.2-4.55Q27.2-4.15 26.9-3.6L26.9-3.6Q25.95-1.9 24.33-0.7 22.7 0.5 21.2 0.5L21.2 0.5ZM11.4-14.8L17.9-14.8Q18-19.4 18.55-23.93 19.1-28.45 19.95-31.3L19.95-31.3 19.9-31.3Q17.95-30.4 16.13-26.95 14.3-23.5 11.95-16.5L11.95-16.5 11.4-14.8ZM31.85 0.5Q29.3 0.5 29.3-4.4L29.3-4.4Q29.3-8.95 31.3-13.48 33.3-18 36.7-20.9 40.1-23.8 44-23.8L44-23.8 44.5-23.8Q46.15-30.7 47.6-34.2 49.05-37.7 51.45-40L51.45-40Q53.05-41.5 54.35-42.05 55.65-42.6 57.9-43.05L57.9-43.05Q58.9-43.25 59.32-43.43 59.75-43.6 59.9-43.6L59.9-43.6Q60.25-43.6 60.25-43.2L60.25-43.2Q60.25-42.55 59.3-41.75L59.3-41.75Q58.8-41.3 58.37-41.15 57.95-41 57.55-40.95 57.15-40.9 56.95-40.85L56.95-40.85Q54.35-40.5 52.55-38.25L52.55-38.25Q51.2-36.5 50.17-33.25 49.15-30 47.4-21.9L47.4-21.9Q44.5-7.9 44.15-5.15L44.15-5.15Q44.1-4.8 44.1-4.3L44.1-4.3Q44.1-3.2 44.75-3.2L44.75-3.2Q45.55-3.2 46.27-4.28 47-5.35 47.8-7.15L47.8-7.15Q48.1-7.7 48.35-7.7L48.35-7.7Q48.65-7.7 48.65-7.15L48.65-7.15 48.55-6.3Q48.15-4.55 47.07-2.98 46-1.4 44.67-0.45 43.35 0.5 42.25 0.5L42.25 0.5Q40.65 0.5 40.65-2.15L40.65-2.15Q40.65-3.15 40.85-4.55L40.85-4.55 41.7-8.95 41.65-8.95Q39.8-5.75 36.95-2.63 34.1 0.5 31.85 0.5L31.85 0.5ZM34.2-3.6Q35.6-3.6 37.42-5.78 39.25-7.95 40.82-11.1 42.4-14.25 43-16.75L43-16.75 43.8-19.95Q42.3-20.95 40.65-20.95L40.65-20.95Q38.5-20.95 36.72-18.48 34.95-16 33.95-12.48 32.95-8.95 32.95-6.1L32.95-6.1Q32.95-4.85 33.22-4.23 33.5-3.6 34.2-3.6L34.2-3.6ZM55.1 0.5Q52.55 0.5 52.55-4.35L52.55-4.35Q52.55-9 54.57-13.53 56.6-18.05 60.05-20.93 63.5-23.8 67.5-23.8L67.5-23.8Q69.55-23.8 71.05-23.15L71.05-23.15Q70.4-20.6 70.15-19.4L70.15-19.4 69.1-14Q67.7-7.6 67.4-5.15L67.4-5.15Q67.35-4.8 67.35-4.3L67.35-4.3Q67.35-3.2 68-3.2L68-3.2Q68.8-3.2 69.5-4.23 70.2-5.25 71.1-7.15L71.1-7.15Q71.15-7.2 71.27-7.45 71.4-7.7 71.6-7.7L71.6-7.7Q71.9-7.7 71.9-7.1L71.9-7.1 71.8-6.3Q71.45-4.65 70.37-3.05 69.3-1.45 67.97-0.48 66.65 0.5 65.6 0.5L65.6 0.5Q63.85 0.5 63.85-2.35L63.85-2.35Q63.85-3.45 64.1-4.6L64.1-4.6 64.95-8.95 64.9-8.95Q62.5-4.75 59.77-2.13 57.05 0.5 55.1 0.5L55.1 0.5ZM57.45-3.6Q58.85-3.6 60.67-5.78 62.5-7.95 64.07-11.1 65.65-14.25 66.25-16.75L66.25-16.75 67.05-19.95Q65.55-20.95 63.9-20.95L63.9-20.95Q61.75-20.95 59.97-18.48 58.2-16 57.2-12.48 56.2-8.95 56.2-6.1L56.2-6.1Q56.2-4.85 56.47-4.23 56.75-3.6 57.45-3.6L57.45-3.6ZM78.34 0.5Q76.79 0.5 75.69-0.35 74.59-1.2 74.24-2.6L74.24-2.6Q74.14-3 74.57-3.88 74.99-4.75 75.69-5.6L75.69-5.6Q76.09-6.05 76.34-6.05L76.34-6.05Q76.59-6.05 76.74-5.65L76.74-5.65Q78.24-2.15 80.89-2.15L80.89-2.15Q82.24-2.15 83.02-2.98 83.79-3.8 83.79-5.2L83.79-5.2Q83.79-7.1 81.64-10.1L81.64-10.1 80.59-11.6Q79.39-13.3 78.92-14.4 78.44-15.5 78.44-16.75L78.44-16.75Q78.44-18.75 79.52-20.35 80.59-21.95 82.34-22.88 84.09-23.8 85.99-23.8L85.99-23.8Q89.59-23.8 89.59-21.35L89.59-21.35Q89.59-20.45 88.94-19.55L88.94-19.55Q88.59-18.95 88.34-18.95L88.34-18.95Q88.04-18.95 87.79-19.55L87.79-19.55Q87.24-20.5 86.47-20.93 85.69-21.35 84.49-21.35L84.49-21.35Q83.09-21.35 82.24-20.6 81.39-19.85 81.39-18.7L81.39-18.7Q81.39-18.05 81.82-17.23 82.24-16.4 83.44-14.7L83.44-14.7 84.49-13.25Q85.89-11.4 86.44-10.08 86.99-8.75 86.99-7.3L86.99-7.3Q86.99-5.45 85.79-3.63 84.59-1.8 82.59-0.65 80.59 0.5 78.34 0.5L78.34 0.5ZM99.59-26.65Q99.09-26.65 99.14-27.15L99.14-27.15 99.74-30.65Q99.99-32.1 100.82-32.88 101.64-33.65 102.89-33.65L102.89-33.65 103.09-33.65Q103.39-33.65 103.47-33.55 103.54-33.45 103.49-33.15L103.49-33.15 102.94-29.7Q102.74-28.3 101.89-27.48 101.04-26.65 99.79-26.65L99.79-26.65 99.59-26.65ZM96.64 0.5Q95.04 0.5 95.04-1.8L95.04-1.8Q95.04-2.95 95.34-4.45L95.34-4.45 97.74-17.8Q97.94-19.1 97.94-19.4L97.94-19.4Q97.94-20.15 97.49-20.15L97.49-20.15Q96.89-20.15 96.04-19.2 95.19-18.25 94.19-16.2L94.19-16.2Q93.99-15.6 93.69-15.6L93.69-15.6Q93.39-15.6 93.39-16.1L93.39-16.1Q93.39-17.3 94.47-19.18 95.54-21.05 97.12-22.43 98.69-23.8 100.04-23.8L100.04-23.8Q101.59-23.8 101.59-21.6L101.59-21.6Q101.59-20.55 101.29-18.85L101.29-18.85 98.69-4.4 98.59-3.75Q98.59-3.2 99.04-3.2L99.04-3.2Q99.64-3.2 100.49-4.17 101.34-5.15 102.34-7.15L102.34-7.15Q102.59-7.7 102.84-7.7L102.84-7.7Q103.14-7.7 103.14-7.05L103.14-7.05Q103.14-5.9 102.07-4.08 100.99-2.25 99.44-0.88 97.89 0.5 96.64 0.5L96.64 0.5Z" fill="#ffffff" data-fill-palette-color="primary"></path></g></svg></g></svg></g></svg></g></svg></g><g></g></svg></g></svg></g></svg></g></svg></g><defs></defs></svg><rect width="320" height="360" fill="none" stroke="none" visibility="hidden"></rect></g></svg></g></svg>